{
  "accessors": [
    {
      "bufferView": 1,
      "componentType": 5126,
      "count": 128,
      "max": [
        10.774999618530273,
        11.170000076293945,
        7.329999923706055
      ],
      "min": [
        1.8899999856948853,
        0.23000000417232513,
        0.29314517974853516
      ],
      "type": "VEC3"
    },
    {
      "bufferView": 1,
      "byteOffset": 1536,
      "componentType": 5126,
      "count": 128,
      "max": [
        1.0,
        0.4249235987663269,
        0.9867717623710632
      ],
      "min": [
        -1.0,
        -0.4249337315559387,
        -1.0
      ],
      "type": "VEC3"
    },
    {
      "bufferView": 2,
      "componentType": 5126,
      "count": 128,
      "max": [
        1.0,
        1.0,
        0.0,
        1.0
      ],
      "min": [
        1.0,
        1.0,
        0.0,
        1.0
      ],
      "type": "VEC4"
    },
    {
      "bufferView": 0,
      "componentType": 5125,
      "count": 384,
      "type": "SCALAR"
    },
    {
      "bufferView": 1,
      "byteOffset": 3072,
      "componentType": 5126,
      "count": 1416,
      "max": [
        10.772500038146973,
        11.167499542236328,
        11.25
      ],
      "min": [
        1.8925000429153442,
        0.23250000178813934,
        3.680000066757202
      ],
      "type": "VEC3"
    },
    {
      "bufferView": 1,
      "byteOffset": 20064,
      "componentType": 5126,
      "count": 1416,
      "max": [
        1.0,
        1.0,
        0.0
      ],
      "min": [
        -1.0,
        -1.0,
        0.0
      ],
      "type": "VEC3"
    },
    {
      "bufferView": 2,
      "byteOffset": 2048,
      "componentType": 5126,
      "count": 1416,
      "max": [
        1.0,
        0.0,
        1.0,
        1.0
      ],
      "min": [
        1.0,
        0.0,
        1.0,
        1.0
      ],
      "type": "VEC4"
    },
    {
      "bufferView": 0,
      "byteOffset": 1536,
      "componentType": 5125,
      "count": 3048,
      "type": "SCALAR"
    },
    {
      "bufferView": 1,
      "byteOffset": 37056,
      "componentType": 5126,
      "count": 647,
      "max": [
        10.68970012664795,
        9.925000190734863,
        11.25
      ],
      "min": [
        1.8849999904632568,
        0.304500013589859,
        3.6500000953674316
      ],
      "type": "VEC3"
    },
    {
      "bufferView": 1,
      "byteOffset": 44820,
      "componentType": 5126,
      "count": 647,
      "max": [
        1.0,
        1.0,
        0.0
      ],
      "min": [
        -1.0,
        -1.0,
        0.0
      ],
      "type": "VEC3"
    },
    {
      "bufferView": 2,
      "byteOffset": 24704,
      "componentType": 5126,
      "count": 647,
      "max": [
        1.0,
        0.501960813999176,
        0.501960813999176,
        1.0
      ],
      "min": [
        0.2980392277240753,
        0.2980392277240753,
        0.0,
        1.0
      ],
      "type": "VEC4"
    },
    {
      "bufferView": 0,
      "byteOffset": 13728,
      "componentType": 5125,
      "count": 1563,
      "type": "SCALAR"
    },
    {
      "bufferView": 1,
      "byteOffset": 52584,
      "componentType": 5126,
      "count": 1941,
      "max": [
        10.765000343322754,
        11.15999984741211,
        11.25
      ],
      "min": [
        0.0,
        0.23999999463558197,
        3.7100000381469727
      ],
      "type": "VEC3"
    },
    {
      "bufferView": 1,
      "byteOffset": 75876,
      "componentType": 5126,
      "count": 1941,
      "max": [
        1.0,
        1.0,
        1.0
      ],
      "min": [
        -1.0,
        -1.0,
        -1.0
      ],
      "type": "VEC3"
    },
    {
      "bufferView": 2,
      "byteOffset": 35056,
      "componentType": 5126,
      "count": 1941,
      "max": [
        0.0,
        0.6509804129600525,
        0.0,
        1.0
      ],
      "min": [
        0.0,
        0.6509804129600525,
        0.0,
        1.0
      ],
      "type": "VEC4"
    },
    {
      "bufferView": 0,
      "byteOffset": 19980,
      "componentType": 5125,
      "count": 4743,
      "type": "SCALAR"
    },
    {
      "bufferView": 1,
      "byteOffset": 99168,
      "componentType": 5126,
      "count": 800,
      "max": [
        10.805000305175781,
        11.199999809265137,
        11.25
      ],
      "min": [
        1.8600000143051147,
        0.20000000298023224,
        0.04559263214468956
      ],
      "type": "VEC3"
    },
    {
      "bufferView": 1,
      "byteOffset": 108768,
      "componentType": 5126,
      "count": 800,
      "max": [
        0.0,
        0.0,
        1.0
      ],
      "min": [
        0.0,
        0.0,
        -1.0
      ],
      "type": "VEC3"
    },
    {
      "bufferView": 2,
      "byteOffset": 66112,
      "componentType": 5126,
      "count": 800,
      "max": [
        0.14901961386203766,
        0.250980406999588,
        1.0,
        1.0
      ],
      "min": [
        0.0,
        0.1882352977991104,
        0.2980392277240753,
        1.0
      ],
      "type": "VEC4"
    },
    {
      "bufferView": 0,
      "byteOffset": 38952,
      "componentType": 5125,
      "count": 1596,
      "type": "SCALAR"
    },
    {
      "bufferView": 1,
      "byteOffset": 118368,
      "componentType": 5126,
      "count": 9119,
      "max": [
        11.005000114440918,
        11.399999618530273,
        11.380000114440918
      ],
      "min": [
        0.0,
        0.0,
        0.0
      ],
      "type": "VEC3"
    },
    {
      "bufferView": 1,
      "byteOffset": 227796,
      "componentType": 5126,
      "count": 9119,
      "max": [
        1.0,
        1.0,
        1.0
      ],
      "min": [
        -1.0,
        -1.0,
        -1.0
      ],
      "type": "VEC3"
    },
    {
      "bufferView": 2,
      "byteOffset": 78912,
      "componentType": 5126,
      "count": 9119,
      "max": [
        1.0,
        1.0,
        1.0,
        1.0
      ],
      "min": [
        0.0,
        0.0,
        0.0,
        1.0
      ],
      "type": "VEC4"
    },
    {
      "bufferView": 0,
      "byteOffset": 45336,
      "componentType": 5125,
      "count": 14814,
      "type": "SCALAR"
    }
  ],
  "asset": {
    "extras": {
      "author": "mastrutec (https://sketchfab.com/mastrutec)",
      "license": "CC-BY-4.0 (http://creativecommons.org/licenses/by/4.0/)",
      "source": "https://sketchfab.com/3d-models/3d-steel-structure-job-n91-fbec815f32e0422b91de232154fa714d",
      "title": "3D Steel structure (Job N91)"
    },
    "generator": "Sketchfab-12.74.0",
    "version": "2.0"
  },
  "bufferViews": [
    {
      "buffer": 0,
      "byteLength": 104592,
      "name": "floatBufferViews",
      "target": 34963
    },
    {
      "buffer": 0,
      "byteLength": 337224,
      "byteOffset": 104592,
      "byteStride": 12,
      "name": "floatBufferViews",
      "target": 34962
    },
    {
      "buffer": 0,
      "byteLength": 224816,
      "byteOffset": 441816,
      "byteStride": 16,
      "name": "floatBufferViews",
      "target": 34962
    }
  ],
  "buffers": [
    {
      "byteLength": 666632,
      "uri": "scene.bin"
    }
  ],
  "materials": [
    {
      "doubleSided": true,
      "name": "Scene_-_Root",
      "pbrMetallicRoughness": {
        "metallicFactor": 0.0,
        "roughnessFactor": 0.6
      }
    }
  ],
  "meshes": [
    {
      "name": "Object_0",
      "primitives": [
        {
          "attributes": {
            "COLOR_0": 2,
            "NORMAL": 1,
            "POSITION": 0
          },
          "indices": 3,
          "material": 0,
          "mode": 4
        }
      ]
    },
    {
      "name": "Object_1",
      "primitives": [
        {
          "attributes": {
            "COLOR_0": 6,
            "NORMAL": 5,
            "POSITION": 4
          },
          "indices": 7,
          "material": 0,
          "mode": 4
        }
      ]
    },
    {
      "name": "Object_2",
      "primitives": [
        {
          "attributes": {
            "COLOR_0": 10,
            "NORMAL": 9,
            "POSITION": 8
          },
          "indices": 11,
          "material": 0,
          "mode": 4
        }
      ]
    },
    {
      "name": "Object_3",
      "primitives": [
        {
          "attributes": {
            "COLOR_0": 14,
            "NORMAL": 13,
            "POSITION": 12
          },
          "indices": 15,
          "material": 0,
          "mode": 4
        }
      ]
    },
    {
      "name": "Object_4",
      "primitives": [
        {
          "attributes": {
            "COLOR_0": 18,
            "NORMAL": 17,
            "POSITION": 16
          },
          "indices": 19,
          "material": 0,
          "mode": 4
        }
      ]
    },
    {
      "name": "Object_5",
      "primitives": [
        {
          "attributes": {
            "COLOR_0": 22,
            "NORMAL": 21,
            "POSITION": 20
          },
          "indices": 23,
          "material": 0,
          "mode": 4
        }
      ]
    }
  ],
  "nodes": [
    {
      "children": [
        1
      ],
      "matrix": [
        1.0,
        0.0,
        0.0,
        0.0,
        0.0,
        2.220446049250313e-16,
        -1.0,
        0.0,
        0.0,
        1.0,
        2.220446049250313e-16,
        0.0,
        0.0,
        0.0,
        0.0,
        1.0
      ],
      "name": "Sketchfab_model"
    },
    {
      "children": [
        2
      ],
      "matrix": [
        1.0,
        0.0,
        0.0,
        0.0,
        0.0,
        1.0,
        0.0,
        0.0,
        0.0,
        0.0,
        1.0,
        0.0,
        -1.9600000381469727,
        -0.30000001192092896,
        -0.44999998807907104,
        1.0
      ],
      "name": "ab1c705a588e44e5b7f66f1daaa1c585.dxf.cleaner.materialmerger.gles"
    },
    {
      "children": [
        3
      ],
      "matrix": [
        1.0,
        0.0,
        0.0,
        0.0,
        0.0,
        1.0,
        0.0,
        0.0,
        0.0,
        0.0,
        1.0,
        0.0,
        3.814697269177714e-08,
        1.1920928966180355e-08,
        -1.1920928966180355e-08,
        1.0
      ],
      "name": "Layers"
    },
    {
      "children": [
        4,
        5,
        6,
        7,
        8,
        9
      ],
      "name": "0"
    },
    {
      "mesh": 0,
      "name": "Object_4"
    },
    {
      "mesh": 1,
      "name": "Object_5"
    },
    {
      "mesh": 2,
      "name": "Object_6"
    },
    {
      "mesh": 3,
      "name": "Object_7"
    },
    {
      "mesh": 4,
      "name": "Object_8"
    },
    {
      "mesh": 5,
      "name": "Object_9"
    }
  ],
  "scene": 0,
  "scenes": [
    {
      "name": "Sketchfab_Scene",
      "nodes": [
        0
      ]
    }
  ]
}
